<svg xmlns="http://www.w3.org/2000/svg" viewBox="0 0 184.2 83.3"><path fill="#666" d="M60.4 54.4c-.2 0-.5 0-.7-.2l-.3-.1c-.8-.4-1.2-1.4-.8-2.2.4-.8 1.4-1.2 2.2-.8l.3.1c.8.4 1.2 1.4.8 2.2-.2.6-.8 1-1.5 1zm-8.1-3.8c-.2 0-.5 0-.7-.2l-.3-.1c-.8-.4-1.2-1.4-.8-2.2.4-.8 1.4-1.2 2.2-.8l.3.1c.8.4 1.2 1.4.8 2.2-.2.7-.8 1-1.5 1zm-8-3.7c-.2 0-.5 0-.7-.2l-.3-.1c-.8-.4-1.2-1.4-.8-2.2.4-.8 1.4-1.2 2.2-.8l.3.1c.8.4 1.2 1.4.8 2.2-.3.6-.9 1-1.5 1zm-8.1-3.8c-.2 0-.5 0-.7-.2l-.3-.1c-.8-.4-1.2-1.4-.8-2.2.4-.8 1.4-1.2 2.2-.8l.3.1c.8.4 1.2 1.4.8 2.2-.3.7-.9 1-1.5 1zm120.9-3.7c-.6 0-1.2-.4-1.5-1-.4-.8 0-1.8.8-2.2l.1-.1c.8-.4 1.8 0 2.2.8.4.8 0 1.8-.8 2.2l-.1.1c-.3.1-.5.2-.7.2zm-32.4 15c-.6 0-1.2-.4-1.5-1-.4-.8 0-1.8.8-2.2l.3-.1c.8-.4 1.8 0 2.2.8.4.8 0 1.8-.8 2.2l-.3.1c-.2.1-.5.2-.7.2zm8.1-3.8c-.6 0-1.2-.4-1.5-1-.4-.8 0-1.8.8-2.2l.3-.1c.8-.4 1.8 0 2.2.8.4.8 0 1.8-.8 2.2l-.3.1c-.2.2-.5.2-.7.2zm8.1-3.7c-.6 0-1.2-.4-1.5-1-.4-.8 0-1.8.8-2.2l.3-.1c.8-.4 1.8 0 2.2.8.4.8 0 1.8-.8 2.2l-.3.1c-.2.1-.5.2-.7.2zm8.1-3.8c-.6 0-1.2-.4-1.5-1-.4-.8 0-1.8.8-2.2l.3-.1c.8-.4 1.8 0 2.2.8.4.8 0 1.8-.8 2.2l-.3.1c-.3.2-.5.2-.7.2z"/><path fill="#FFF" d="M66.3 36.1l26.3 12v33.7L66.3 70.1"/><path fill="#08A7FF" d="M92.6 83.3c-.2 0-.4 0-.6-.1L65.7 71.5c-.5-.2-.9-.8-.9-1.4v-34c0-.5.3-1 .7-1.3s1-.3 1.4-.1l26.2 12.1c.5.2.9.8.9 1.4v33.7c0 .5-.3 1-.7 1.3-.2 0-.4.1-.7.1zM67.8 69.2L91 79.6V49.1L67.8 38.4v30.8z"/><path fill="#FFF" d="M92.6 24.4L66.3 36.1l26.3 12 26.5-12"/><path fill="#08A7FF" d="M92.6 49.6c-.2 0-.4 0-.6-.1L65.7 37.4c-.5-.2-.9-.8-.9-1.4s.4-1.1.9-1.4L92 23.1c.4-.2.8-.2 1.2 0l26.5 11.6c.5.2.9.8.9 1.4 0 .6-.3 1.1-.9 1.4l-26.5 12c-.2.1-.4.1-.6.1zM70 36.1l22.6 10.4 22.8-10.4-22.8-10-22.6 10z"/><path fill="#FFF" d="M119.1 70.1L92.6 81.8V48.1l26.5-12"/><path fill="#08A7FF" d="M92.6 83.3c-.3 0-.6-.1-.8-.2-.4-.3-.7-.8-.7-1.3V48.1c0-.6.3-1.1.9-1.4l26.5-12.1c.5-.2 1-.2 1.4.1.4.3.7.8.7 1.3v34.1c0 .6-.4 1.1-.9 1.4L93.2 83.2c-.2.1-.4.1-.6.1zm1.5-34.2v30.4l23.5-10.4V38.4L94.1 49.1z"/><path fill="#FFF" d="M146 9.6l18.3 8.4v23.4L146 33.3"/><path fill="#08A7FF" d="M164.3 42.9c-.2 0-.4 0-.6-.1l-18.3-8.1c-.5-.2-.9-.8-.9-1.4V9.6c0-.5.3-1 .7-1.3.4-.3 1-.3 1.4-.1l18.3 8.4c.5.2.9.8.9 1.4v23.4c0 .5-.3 1-.7 1.3-.3.2-.5.2-.8.2zm-16.8-10.6l15.3 6.8V19l-15.3-7v20.3z"/><path fill="#FFF" d="M164.3 1.5L146 9.6l18.3 8.4 18.4-8.4"/><path fill="#08A7FF" d="M164.3 19.5c-.2 0-.4 0-.6-.1L145.4 11c-.5-.2-.9-.8-.9-1.4 0-.6.4-1.1.9-1.4L163.7.1c.4-.2.8-.2 1.2 0l18.4 8.1c.5.2.9.8.9 1.4 0 .6-.3 1.1-.9 1.4l-18.4 8.4c-.2 0-.4.1-.6.1zm-14.7-9.9l14.6 6.7L179 9.6l-14.8-6.5-14.6 6.5z"/><path fill="#FFF" d="M182.7 33.3l-18.4 8.1V18l18.4-8.4"/><path fill="#08A7FF" d="M164.3 42.9c-.3 0-.6-.1-.8-.2-.4-.3-.7-.8-.7-1.3V18c0-.6.3-1.1.9-1.4l18.4-8.4c.5-.2 1-.2 1.4.1.4.3.7.8.7 1.3v23.7c0 .6-.4 1.1-.9 1.4l-18.4 8.1c-.2.1-.4.1-.6.1zm1.5-23.9v20.2l15.4-6.8V11.9L165.8 19z"/><path fill="#FFF" d="M1.5 9.6L19.8 18v23.4L1.5 33.3"/><path fill="#08A7FF" d="M19.8 42.9c-.2 0-.4 0-.6-.1L.9 34.7c-.6-.3-.9-.8-.9-1.4V9.6c0-.5.3-1 .7-1.3s1-.3 1.4-.1l18.3 8.4c.5.2.9.8.9 1.4v23.4c0 .5-.3 1-.7 1.3-.3.2-.5.2-.8.2zM3 32.3l15.3 6.8V19L3 11.9v20.4z"/><path fill="#FFF" d="M19.8 1.5L1.5 9.6 19.8 18l18.4-8.4"/><path fill="#08A7FF" d="M19.8 19.5c-.2 0-.4 0-.6-.1L.9 10.9c-.6-.2-.9-.7-.9-1.3 0-.6.4-1.1.9-1.4L19.2.1c.4-.1.8-.1 1.2 0l18.4 8.1c.5.2.9.8.9 1.4 0 .6-.3 1.1-.9 1.4l-18.4 8.4c-.2 0-.4.1-.6.1zM5.1 9.6l14.6 6.7 14.8-6.7-14.7-6.5L5.1 9.6z"/><path fill="#FFF" d="M38.2 33.3l-18.4 8.1V18l18.4-8.4"/><path fill="#08A7FF" d="M19.8 42.9c-.3 0-.6-.1-.8-.2-.4-.3-.7-.8-.7-1.3V18c0-.6.3-1.1.9-1.4l18.4-8.4c.5-.2 1-.2 1.4.1.4.3.7.8.7 1.3v23.7c0 .6-.4 1.1-.9 1.4l-18.4 8.1c-.2.1-.4.1-.6.1zM21.3 19v20.2l15.4-6.8V11.9L21.3 19z"/></svg>